<?xml version="1.0" encoding="utf-8"?>
<!-- Generator: Adobe Illustrator 25.0.1, SVG Export Plug-In . SVG Version: 6.00 Build 0)  -->
<svg version="1.0" id="katman_1" xmlns="http://www.w3.org/2000/svg" xmlns:xlink="http://www.w3.org/1999/xlink" x="0px" y="0px"
	 viewBox="0 0 600 400" style="enable-background:new 0 0 600 400;" xml:space="preserve">
<style type="text/css">
	.st0{clip-path:url(#SVGID_1_);fill-rule:evenodd;clip-rule:evenodd;fill:#AA182C;}
	.st1{clip-path:url(#SVGID_1_);fill-rule:evenodd;clip-rule:evenodd;fill:#1D1D1B;}
	.st2{clip-path:url(#SVGID_1_);fill:#1D1D1B;}
</style>
<g>
	<defs>
		<rect id="SVGID_3_" x="65.3" y="144.6" width="469.7" height="111.4"/>
	</defs>
	<clipPath id="SVGID_1_">
		<use xlink:href="#SVGID_3_"  style="overflow:visible;"/>
	</clipPath>
	<path class="st0" d="M185.2,184.3c2.6,4.9,4.2,15,4.5,21.6h-40c0,0-0.5-3.8-2.7-8.3L185.2,184.3z M173.5,165.5
		c4.6,5.3,9,11.7,10.9,16.2L146,195.8c-1.3-2.3-3-4.7-5.2-6.9L173.5,165.5z M155.9,152.7c5.2,2.7,10.6,6.3,15.8,11.1l-32.6,23.7
		c-1.9-1.5-4.1-2.9-6.6-3.9L155.9,152.7z M135.2,145.7c5.3,0.9,11.7,2.7,18.3,5.8l-23,31.4c-2.2-0.7-4.6-1.1-7.3-1.2L135.2,145.7z
		 M114.7,145.4c1.9-0.3,3.9-0.5,6-0.6c0,0,4.9-0.5,12.3,0.6l-11.8,36.3c-2.3,0-4.4,0.2-6.5,0.7V145.4z M95.8,150.4
		c4.8-2.1,10.3-3.7,16.8-4.8v37.1c-1.8,0.5-3.4,1.2-5,2.1L95.8,150.4z M80.5,160.6c3.6-3.5,8-6.7,13.4-9.3l12.1,34.6
		c-1.5,1-2.8,2.1-4,3.4L80.5,160.6z M70.7,174.4c1.9-4.1,4.6-8.2,8.2-12.1l21.8,28.6c-0.1,0.2-0.2,0.3-0.4,0.5c-0.7,1-1.2,2-1.6,3.1
		L70.7,174.4z M65.8,190.3c0.6-3.8,1.7-8.6,3.8-13.7L98,196.4c-0.4,1.4-0.7,2.8-0.8,3.9L65.8,190.3z M65.6,205.2
		c-0.2-2.3-0.4-4.7-0.4-7.3c0,0-0.1-2.1,0.3-5.4l31.4,9.8c-0.1,0.9-0.1,1.4-0.1,1.4s0,0.8,0.2,2L65.6,205.2z M69.2,219.5
		c-1.4-3.5-2.6-7.4-3.2-11.8h31.4c0.2,0.7,0.3,1.5,0.6,2.2L69.2,219.5z M76.9,231.7c-2.6-2.8-4.9-6.1-6.8-10.1l28.6-9.7
		c0.5,1.1,1.1,2.1,1.8,3.1L76.9,231.7z M87.9,240.4c-3.2-1.8-6.4-4.1-9.4-7l23.3-16.8c0.7,0.7,1.5,1.4,2.3,2L87.9,240.4z
		 M100.8,245.6c-3.2-0.8-7.1-2.1-11.1-4.2l16.1-21.9c0.8,0.4,1.6,0.7,2.5,0.9L100.8,245.6z M112.9,246.8c-1.4,0.1-2.8,0.1-4.3,0.1
		c0,0-2.3-0.1-5.9-0.9l7.3-25.2c0.9,0.1,1.8,0.2,2.7,0.3L112.9,246.8z M125.3,244.3c-2.9,1.1-6.3,1.8-10.1,2.3l-0.5-25.5
		c0.8,0,1.5-0.1,2.2-0.3L125.3,244.3z M135.5,238.5c-2.2,1.9-4.9,3.6-8.1,5l-8.5-23.2c0.9-0.3,1.6-0.7,2.3-1.1L135.5,238.5z
		 M142.8,229.1c-1.4,2.7-3.2,5.3-5.6,7.8L122.9,218c0.9-0.8,1.6-1.7,2.2-2.7L142.8,229.1z M146.3,218.5c-0.4,2.5-1.2,5.4-2.5,8.4
		L125.7,214c0.4-0.9,0.7-1.8,0.8-2.6L146.3,218.5z M146.7,208.1c0.1,1.1,0.2,2.3,0.2,3.5c0,0,0.1,1.7-0.2,4.4l-19.8-6.2
		c0.1-0.9,0.2-1.7,0.2-2.2L146.7,208.1z M144.1,198.6c1.1,2.2,1.9,4.6,2.4,7.4h-19.6c-0.1-0.4-0.2-0.9-0.3-1.5L144.1,198.6z
		 M138.1,190.9c1.9,1.7,3.6,3.6,5,6l-17,6c-0.3-0.8-0.6-1.7-1.1-2.6L138.1,190.9z M130.5,186.3c2.1,0.8,4.1,1.8,5.9,3.1l-12.4,9
		c-0.4-0.6-0.9-1.2-1.4-1.7L130.5,186.3z M122.2,184.7c2.1,0.1,4.2,0.4,6.2,1l-7.3,9.8c-0.6-0.5-1.4-0.9-2.2-1.3L122.2,184.7z
		 M114.7,185.6c1.6-0.4,3.4-0.7,5.4-0.9l-2.9,8.9c-0.8-0.2-1.6-0.3-2.5-0.4V185.6z M108.6,187.9c1.1-0.6,2.4-1.2,4-1.7v7.1
		c-0.6,0-1.2,0.1-2.1,0.2L108.6,187.9z M103.9,191.2c0,0,1.1-1.1,3.2-2.4l1.8,5.1c-0.8,0.2-1.7,0.6-2.4,1L103.9,191.2z"/>
	<path class="st1" d="M243.6,213h-5.8v6.1h5.8V213z M234.8,213H229v6.1h5.8V213z M238.6,221.5v5.4h3.1v15.9c0,1.8-0.1,3.6-1.2,5.1
		c-1.1,1.4-2.7,2-4.4,2c-1.9,0-3.6-0.8-4.7-2.4c-1-1.4-1-3.1-1-4.7v-15.9h3.1v-5.4h-13.2v5.4h3.7v16.6c0,3.7,0.6,6.7,3.4,9.4
		c2.4,2.4,5.5,3.1,8.7,3.1c3.4,0,6.6-0.9,9-3.4c2.5-2.6,3.1-5.4,3.1-8.9v-16.8h3.7v-5.4H238.6z"/>
	<polygon class="st1" points="285.6,226.9 289.2,226.9 289.2,221.5 275.4,221.5 275.4,226.9 279.1,226.9 279.1,244.1 263,221.5 
		253.5,221.5 253.5,226.9 257.1,226.9 257.1,249.9 253.5,249.9 253.5,255.3 267.3,255.3 267.3,249.9 263.6,249.9 263.6,233.1 
		279.5,255.3 285.6,255.3 	"/>
	<path class="st1" d="M301.6,226.9h3.7v-5.4h-13.8v5.4h3.7v23h-3.7v5.4h13.8v-5.4h-3.7V226.9z M301.3,212.3h-5.8v6.1h5.8V212.3z"/>
	<polygon class="st1" points="337.7,226.9 341.3,226.9 341.3,221.5 328,221.5 328,226.9 331.3,226.9 324.1,246.4 317.4,226.9 
		320.6,226.9 320.6,221.5 306.9,221.5 306.9,226.9 310.5,226.9 320.3,255.3 327.4,255.3 	"/>
	<polygon class="st1" points="342.8,255.3 367.9,255.3 367.9,245.1 361.4,245.1 361.4,249.7 352.9,249.7 352.9,240.7 362.8,240.7 
		362.8,235.7 352.9,235.7 352.9,227.3 361.4,227.3 361.4,231.7 367.9,231.7 367.9,221.5 342.8,221.5 342.8,226.9 346.5,226.9 
		346.5,249.9 342.8,249.9 	"/>
	<path class="st1" d="M374,249.9h-3.7v5.4h13v-5.4h-2.9v-9.8l10.7,15.2h7.9v-5.4h-3.8l-5.3-6.7c5.1-0.4,8.4-5.3,8.4-10.2
		c0-3.5-1.4-6.6-4-8.9c-2.7-2.3-5.6-2.6-8.9-2.6h-15.1v5.4h3.7V249.9z M380.4,239.5v-12.2h4.5c1.8,0,3.4,0,4.8,1.2
		c1.5,1.1,2.2,3,2.2,4.8c0,1.9-0.8,3.7-2.3,4.9c-1.7,1.3-3.7,1.4-5.6,1.4H380.4z"/>
	<path class="st1" d="M400.8,245.3v10h5.1v-2.2c1.6,2,3.9,2.9,6.5,2.9c6.2,0,10.7-4.5,10.7-10.6c0-2.8-1.2-5.4-3.4-7.1
		c-2.2-1.7-4.7-2.4-7.3-3.1c-2.6-0.8-5.6-1.5-5.6-4.8c0-2.7,2.1-4.2,4.6-4.2c2.5,0,4.4,1.9,4.4,4.4h5.8v-9.1h-4.9v1.9
		c-1.4-1.9-3.7-2.6-6-2.6c-5.5,0-10.3,4.2-10.3,9.8c0,3,1.3,5.6,3.7,7.4c2.1,1.6,4.2,2.2,6.6,2.9c2.6,0.8,5.8,1.6,5.8,5
		c0,2.9-2.2,4.6-5,4.6c-3.1,0-5-2.4-5-5.2H400.8z"/>
	<path class="st1" d="M435.5,226.9h3.7v-5.4h-13.8v5.4h3.7v23h-3.7v5.4h13.8v-5.4h-3.7V226.9z M435.2,212.3h-5.8v6.1h5.8V212.3z"/>
	<polygon class="st1" points="458,227.2 463,227.2 463,232.2 468.1,232.2 468.1,221.5 441.4,221.5 441.4,232.2 446.5,232.2 
		446.5,227.2 451.5,227.2 451.5,249.9 447.8,249.9 447.8,255.3 461.7,255.3 461.7,249.9 458,249.9 	"/>
	<polygon class="st1" points="470,255.3 495.1,255.3 495.1,245.1 488.7,245.1 488.7,249.7 480.2,249.7 480.2,240.7 490,240.7 
		490,235.7 480.2,235.7 480.2,227.3 488.7,227.3 488.7,231.7 495.1,231.7 495.1,221.5 470,221.5 470,226.9 473.7,226.9 473.7,249.9 
		470,249.9 	"/>
	<path class="st1" d="M497.7,245.3v10h5.1v-2.2c1.6,2,3.9,2.9,6.5,2.9c6.2,0,10.7-4.5,10.7-10.6c0-2.8-1.2-5.4-3.4-7.1
		c-2.2-1.7-4.7-2.4-7.3-3.1c-2.6-0.8-5.6-1.5-5.6-4.8c0-2.7,2.1-4.2,4.6-4.2c2.5,0,4.4,1.9,4.4,4.4h5.8v-9.1h-4.9v1.9
		c-1.4-1.9-3.7-2.6-6-2.6c-5.5,0-10.3,4.2-10.3,9.8c0,3,1.3,5.6,3.7,7.4c2.1,1.6,4.2,2.2,6.6,2.9c2.6,0.8,5.8,1.6,5.8,5
		c0,2.9-2.2,4.6-5,4.6c-3.1,0-5-2.4-5-5.2H497.7z"/>
	<path class="st1" d="M531.3,226.9h3.7v-5.4h-13.8v5.4h3.7v23h-3.7v5.4H535v-5.4h-3.7V226.9z M531,212.3h-5.8v6.1h5.8V212.3z"/>
	<polygon class="st1" points="252.7,200.6 249.7,200.6 236.9,188.6 249,177.5 252,177.5 252,172 238,172 238,177.5 241,177.5 
		230.5,187.4 230.5,177.5 234.1,177.5 234.1,172 220.3,172 220.3,177.5 224,177.5 224,200.6 220.3,200.6 220.3,206 234.1,206 
		234.1,200.6 230.5,200.6 230.5,190 241.5,200.6 238.2,200.6 238.2,206 252.7,206 	"/>
	<path class="st1" d="M269,206.7c10,0,17.9-8,17.9-18c0-9.7-8-17.5-17.7-17.5c-9.9,0-18,7.8-18,17.8
		C251.1,198.8,259.1,206.7,269,206.7 M269,200.2c-6.3,0-11.1-5.1-11.1-11.4c0-6.2,5.1-11.2,11.2-11.2c6.1,0,11.1,5,11.1,11.1
		C280.2,195,275.3,200.2,269,200.2"/>
	<path class="st2" d="M323,194.8h-7c-2.1,3.3-5.7,5.1-9.6,5.1c-6.1,0-11-5.1-11-11.2c0-6.4,4.7-11.2,11.1-11.2
		c3.7,0,7.5,1.9,9.4,5.2h6.2v-10.8h-5.3v3.4c-2.8-2.9-6.6-4.2-10.5-4.2c-9.7,0-17.4,8.1-17.4,17.6c0,4.8,1.8,9.3,5.1,12.7
		c2.5,2.5,5.8,4.2,9.3,4.9v5.8h6.1v-5.7C315.6,205.3,321.1,200.8,323,194.8"/>
</g>
</svg>
